<svg xmlns="http://www.w3.org/2000/svg" width="116.037" height="33.299" viewBox="0 0 116.037 33.299"><defs><style>.a{fill:#00435c;}.b{fill:#fff;}</style></defs><path class="a" d="M116.927,30.851a3.338,3.338,0,0,1-3.341,3.338H4.236A3.342,3.342,0,0,1,.89,30.851V4.232A3.346,3.346,0,0,1,4.236.89H113.584a3.342,3.342,0,0,1,3.341,3.342V30.851Z" transform="translate(-0.89 -0.89)"/><g transform="translate(10.373 4.643)"><path class="b" d="M27.9,18.832a5.052,5.052,0,0,1,2.406-4.239,5.175,5.175,0,0,0-4.075-2.2c-1.714-.18-3.377,1.026-4.25,1.026-.891,0-2.235-1.008-3.685-.979a5.426,5.426,0,0,0-4.567,2.785c-1.975,3.419-.5,8.443,1.39,11.207.946,1.353,2.052,2.865,3.5,2.812,1.416-.058,1.945-.9,3.654-.9,1.693,0,2.19.9,3.667.869,1.52-.024,2.477-1.36,3.39-2.725a11.184,11.184,0,0,0,1.55-3.158A4.884,4.884,0,0,1,27.9,18.832Z" transform="translate(-12.792 -7.008)"/><path class="b" d="M26.437,9.781a4.973,4.973,0,0,0,1.138-3.564A5.065,5.065,0,0,0,24.3,7.911a4.732,4.732,0,0,0-1.168,3.432A4.184,4.184,0,0,0,26.437,9.781Z" transform="translate(-14.117 -6.217)"/></g><g transform="translate(36.186 14.913)"><path class="b" d="M52.2,29.794H50.222l-1.084-3.407H45.37l-1.033,3.407H42.41l3.734-11.6H48.45Zm-3.39-4.836-.98-3.029q-.156-.464-.585-2.185h-.035q-.171.74-.551,2.185L45.7,24.958Z" transform="translate(-42.41 -18.026)"/><path class="b" d="M63.475,25.961a4.752,4.752,0,0,1-1.153,3.372,3.371,3.371,0,0,1-2.564,1.1,2.564,2.564,0,0,1-2.375-1.187h-.035v4.406H55.49V24.636q0-1.341-.069-2.753h1.634l.1,1.326h.035a3.306,3.306,0,0,1,5.291-.328A4.608,4.608,0,0,1,63.475,25.961Zm-1.893.068a3.443,3.443,0,0,0-.551-2.013,1.9,1.9,0,0,0-1.618-.826,1.932,1.932,0,0,0-1.247.456,2.114,2.114,0,0,0-.731,1.2,2.433,2.433,0,0,0-.086.566V26.8a2.234,2.234,0,0,0,.56,1.541,1.855,1.855,0,0,0,1.454.628A1.9,1.9,0,0,0,61,28.164,3.56,3.56,0,0,0,61.582,26.029Z" transform="translate(-44.082 -18.478)"/><path class="b" d="M74.512,25.961a4.749,4.749,0,0,1-1.154,3.372,3.368,3.368,0,0,1-2.563,1.1,2.562,2.562,0,0,1-2.374-1.187h-.035v4.406H66.528V24.636q0-1.341-.069-2.753h1.634l.1,1.326h.035a3.307,3.307,0,0,1,5.292-.328A4.621,4.621,0,0,1,74.512,25.961Zm-1.893.068a3.443,3.443,0,0,0-.552-2.013,1.9,1.9,0,0,0-1.617-.826,1.935,1.935,0,0,0-1.248.456,2.113,2.113,0,0,0-.73,1.2,2.48,2.48,0,0,0-.086.566V26.8a2.241,2.241,0,0,0,.558,1.541,1.859,1.859,0,0,0,1.455.628,1.9,1.9,0,0,0,1.634-.809A3.56,3.56,0,0,0,72.619,26.029Z" transform="translate(-45.5 -18.478)"/><path class="b" d="M86.978,26.517a3.091,3.091,0,0,1-1.03,2.409,4.566,4.566,0,0,1-3.159,1.015,5.53,5.53,0,0,1-3.006-.722l.431-1.549a5.093,5.093,0,0,0,2.686.741,2.539,2.539,0,0,0,1.636-.474,1.548,1.548,0,0,0,.584-1.267,1.616,1.616,0,0,0-.482-1.189,4.48,4.48,0,0,0-1.6-.9q-3.046-1.136-3.045-3.326a2.943,2.943,0,0,1,1.068-2.344A4.209,4.209,0,0,1,83.9,18a5.629,5.629,0,0,1,2.632.551l-.465,1.515a4.567,4.567,0,0,0-2.22-.533,2.247,2.247,0,0,0-1.53.482,1.377,1.377,0,0,0-.465,1.05,1.418,1.418,0,0,0,.533,1.136,6.018,6.018,0,0,0,1.687.9,5.725,5.725,0,0,1,2.2,1.41A2.946,2.946,0,0,1,86.978,26.517Z" transform="translate(-47.211 -18.001)"/><path class="b" d="M94.337,23H92.289v4.06q0,1.549,1.084,1.549a3.3,3.3,0,0,0,.825-.086l.051,1.411a4.21,4.21,0,0,1-1.445.206,2.23,2.23,0,0,1-1.721-.671,3.3,3.3,0,0,1-.62-2.255V22.994h-1.22V21.6h1.22V20.068l1.825-.551V21.6h2.048Z" transform="translate(-48.427 -18.196)"/><path class="b" d="M104.483,26a4.588,4.588,0,0,1-1.1,3.166,3.933,3.933,0,0,1-3.064,1.273,3.74,3.74,0,0,1-2.933-1.221,4.447,4.447,0,0,1-1.093-3.08,4.543,4.543,0,0,1,1.127-3.183,3.9,3.9,0,0,1,3.036-1.239,3.819,3.819,0,0,1,2.96,1.222A4.4,4.4,0,0,1,104.483,26Zm-1.928.06a3.762,3.762,0,0,0-.5-1.984,1.835,1.835,0,0,0-1.668-1,1.863,1.863,0,0,0-1.7,1,3.834,3.834,0,0,0-.5,2.019,3.756,3.756,0,0,0,.5,1.984,1.9,1.9,0,0,0,3.355-.017A3.775,3.775,0,0,0,102.556,26.056Z" transform="translate(-49.332 -18.478)"/><path class="b" d="M111.961,23.517a3.226,3.226,0,0,0-.586-.051,1.756,1.756,0,0,0-1.515.741,2.784,2.784,0,0,0-.465,1.652v4.388h-1.857l.017-5.729q0-1.446-.07-2.633h1.618l.068,1.6h.051a2.86,2.86,0,0,1,.929-1.325,2.247,2.247,0,0,1,1.343-.448,2.983,2.983,0,0,1,.465.034Z" transform="translate(-50.771 -18.478)"/><path class="b" d="M121.06,25.666a4.358,4.358,0,0,1-.068.843h-5.574a2.426,2.426,0,0,0,.809,1.894,2.761,2.761,0,0,0,1.823.585,6.165,6.165,0,0,0,2.256-.4l.291,1.29a6.973,6.973,0,0,1-2.8.517,4.062,4.062,0,0,1-3.056-1.144,4.226,4.226,0,0,1-1.109-3.071,4.791,4.791,0,0,1,1.034-3.149,3.561,3.561,0,0,1,2.924-1.341,3.117,3.117,0,0,1,2.737,1.341A4.523,4.523,0,0,1,121.06,25.666Zm-1.772-.482a2.524,2.524,0,0,0-.361-1.428,1.623,1.623,0,0,0-1.481-.775,1.763,1.763,0,0,0-1.479.757,2.773,2.773,0,0,0-.55,1.445h3.87Z" transform="translate(-51.56 -18.475)"/></g><g transform="translate(37.289 4.938)"><path class="b" d="M48.36,9.6a2.861,2.861,0,0,1-.922,2.317,3.668,3.668,0,0,1-2.425.718,11.246,11.246,0,0,1-1.336-.068v-5.6a9.859,9.859,0,0,1,1.573-.119,3.391,3.391,0,0,1,2.257.651A2.631,2.631,0,0,1,48.36,9.6Zm-.963.025a2.083,2.083,0,0,0-.528-1.53,2.082,2.082,0,0,0-1.543-.533,3.865,3.865,0,0,0-.736.059v4.261a4.822,4.822,0,0,0,.617.025,2.16,2.16,0,0,0,1.618-.583A2.335,2.335,0,0,0,47.4,9.628Z" transform="translate(-43.676 -6.593)"/><path class="b" d="M54.316,10.727a2.253,2.253,0,0,1-.541,1.556,1.932,1.932,0,0,1-1.505.626,1.836,1.836,0,0,1-1.442-.6,2.187,2.187,0,0,1-.536-1.513,2.232,2.232,0,0,1,.553-1.564,1.919,1.919,0,0,1,1.492-.608,1.879,1.879,0,0,1,1.455.6A2.169,2.169,0,0,1,54.316,10.727Zm-.947.03a1.858,1.858,0,0,0-.245-.975A.9.9,0,0,0,52.3,9.29a.916.916,0,0,0-.838.492,1.883,1.883,0,0,0-.245.992,1.858,1.858,0,0,0,.245.975.922.922,0,0,0,.829.492.911.911,0,0,0,.819-.5A1.846,1.846,0,0,0,53.368,10.756Z" transform="translate(-44.526 -6.822)"/><path class="b" d="M61.888,8.719,60.6,12.827h-.837l-.533-1.784a13.353,13.353,0,0,1-.33-1.327h-.017a9.718,9.718,0,0,1-.33,1.327l-.566,1.784h-.846L55.935,8.719h.939l.465,1.953q.169.693.279,1.319h.017q.1-.515.339-1.31l.583-1.961H59.3l.559,1.919q.2.7.329,1.353h.025a12.923,12.923,0,0,1,.279-1.353l.5-1.919h.9Z" transform="translate(-45.251 -6.834)"/><path class="b" d="M67.667,12.815h-.913V10.462q0-1.088-.828-1.088a.824.824,0,0,0-.66.3,1.061,1.061,0,0,0-.254.7v2.437H64.1V9.88q0-.541-.033-1.176h.8l.043.642h.025a1.319,1.319,0,0,1,.473-.5,1.544,1.544,0,0,1,.828-.231,1.311,1.311,0,0,1,.956.372,1.808,1.808,0,0,1,.473,1.361Z" transform="translate(-46.296 -6.821)"/><path class="b" d="M70.953,12.549h-.912V6.556h.912Z" transform="translate(-47.063 -6.556)"/><path class="b" d="M76.665,10.727a2.253,2.253,0,0,1-.541,1.556,1.933,1.933,0,0,1-1.505.626,1.834,1.834,0,0,1-1.442-.6,2.187,2.187,0,0,1-.536-1.513,2.232,2.232,0,0,1,.553-1.564,1.919,1.919,0,0,1,1.491-.608,1.881,1.881,0,0,1,1.455.6A2.169,2.169,0,0,1,76.665,10.727Zm-.948.03a1.858,1.858,0,0,0-.245-.975.9.9,0,0,0-.818-.492.914.914,0,0,0-.838.492,1.883,1.883,0,0,0-.245.992,1.858,1.858,0,0,0,.245.975.922.922,0,0,0,.829.492.91.91,0,0,0,.818-.5A1.839,1.839,0,0,0,75.717,10.756Z" transform="translate(-47.397 -6.822)"/><path class="b" d="M81.833,12.815h-.82l-.068-.473h-.025a1.407,1.407,0,0,1-1.2.566,1.239,1.239,0,0,1-.938-.372,1.167,1.167,0,0,1-.322-.837,1.276,1.276,0,0,1,.63-1.15,3.27,3.27,0,0,1,1.772-.389v-.077q0-.812-.853-.811a1.911,1.911,0,0,0-1.071.3l-.186-.6a2.635,2.635,0,0,1,1.409-.355q1.611,0,1.612,1.7v1.513A6.417,6.417,0,0,0,81.833,12.815ZM80.885,11.4V10.77q-1.511-.026-1.511.828a.619.619,0,0,0,.175.482.639.639,0,0,0,.446.16.922.922,0,0,0,.559-.19.78.78,0,0,0,.331-.647Z" transform="translate(-48.145 -6.822)"/><path class="b" d="M87.707,12.549H86.9l-.043-.66h-.025a1.366,1.366,0,0,1-1.32.753,1.546,1.546,0,0,1-1.234-.583,2.272,2.272,0,0,1-.49-1.513,2.382,2.382,0,0,1,.533-1.615,1.637,1.637,0,0,1,1.268-.575,1.231,1.231,0,0,1,1.157.558h.017V6.556h.914v4.887Q87.675,12.043,87.707,12.549Zm-.946-1.733v-.685a1.345,1.345,0,0,0-.025-.288,1.04,1.04,0,0,0-.33-.553.9.9,0,0,0-.611-.224.937.937,0,0,0-.8.406,1.74,1.74,0,0,0-.293,1.04,1.622,1.622,0,0,0,.281.989.94.94,0,0,0,.8.405.88.88,0,0,0,.722-.338A1.126,1.126,0,0,0,86.76,10.817Z" transform="translate(-48.829 -6.556)"/><path class="b" d="M96.655,10.727a2.253,2.253,0,0,1-.541,1.556,1.93,1.93,0,0,1-1.505.626,1.838,1.838,0,0,1-1.441-.6,2.187,2.187,0,0,1-.536-1.513,2.232,2.232,0,0,1,.553-1.564,1.92,1.92,0,0,1,1.493-.608,1.877,1.877,0,0,1,1.454.6A2.169,2.169,0,0,1,96.655,10.727Zm-.946.03a1.858,1.858,0,0,0-.245-.975.9.9,0,0,0-.82-.492.918.918,0,0,0-.838.492,1.883,1.883,0,0,0-.245.992,1.858,1.858,0,0,0,.245.975.933.933,0,0,0,1.649-.009A1.854,1.854,0,0,0,95.708,10.756Z" transform="translate(-49.965 -6.822)"/><path class="b" d="M102.352,12.815h-.912V10.462q0-1.088-.829-1.088a.821.821,0,0,0-.659.3,1.056,1.056,0,0,0-.254.7v2.437h-.914V9.88q0-.541-.032-1.176h.8l.043.642h.025a1.333,1.333,0,0,1,.473-.5,1.547,1.547,0,0,1,.829-.231,1.31,1.31,0,0,1,.955.372,1.8,1.8,0,0,1,.473,1.361Z" transform="translate(-50.752 -6.821)"/><path class="b" d="M109.567,9.252h-1.006v2c0,.507.179.761.533.761a1.609,1.609,0,0,0,.407-.043l.024.693a2.052,2.052,0,0,1-.709.1,1.092,1.092,0,0,1-.845-.329,1.611,1.611,0,0,1-.305-1.108V9.252h-.6V8.568h.6V7.815l.9-.27V8.567h1.006v.685Z" transform="translate(-51.82 -6.683)"/><path class="b" d="M114.958,12.549h-.914V10.214q0-1.1-.827-1.105a.872.872,0,0,0-.872.641,1.148,1.148,0,0,0-.043.329v2.471h-.912V6.556h.912V9.032h.017a1.381,1.381,0,0,1,1.234-.675,1.273,1.273,0,0,1,.939.372,1.871,1.871,0,0,1,.465,1.378Z" transform="translate(-52.375 -6.556)"/><path class="b" d="M120.669,10.565a2.206,2.206,0,0,1-.034.414H117.9a1.2,1.2,0,0,0,.4.93,1.361,1.361,0,0,0,.9.288A3.026,3.026,0,0,0,120.3,12l.143.634a3.44,3.44,0,0,1-1.379.254,1.991,1.991,0,0,1-1.5-.562,2.071,2.071,0,0,1-.545-1.509,2.351,2.351,0,0,1,.507-1.547,1.747,1.747,0,0,1,1.436-.659,1.528,1.528,0,0,1,1.343.659A2.193,2.193,0,0,1,120.669,10.565Zm-.872-.236a1.23,1.23,0,0,0-.177-.7.8.8,0,0,0-.727-.381.867.867,0,0,0-.727.372,1.383,1.383,0,0,0-.271.71Z" transform="translate(-53.098 -6.82)"/></g></svg>