<svg xmlns="http://www.w3.org/2000/svg" width="285.06" height="322.495" viewBox="0 0 285.06 322.495"><defs><style>.a{fill:#ffe823;}.b{fill:#008abc;}</style></defs><g transform="translate(553.735 -1453.613)"><path class="a" d="M6.559,1928.909l0,1.139a1.63,1.63,0,0,0,.139,1.308q1.039,12.439,2.078,24.877a10.824,10.824,0,0,1-.126,4.182,9.992,9.992,0,0,1-4.142,2.338c-3.628,1.28-7.227,2.645-10.841,3.964-1.389.507-2.691,1.265-2.812,2.826a35.22,35.22,0,0,0-.153,7.751l-.105,1.776a64.993,64.993,0,0,0-.244,9.237q-.028.21-.056.421a30.98,30.98,0,0,1-3.844,4.881q-9.869,11.692-19.773,23.357a4.561,4.561,0,0,1-3.106,1.881c-7.721.735-15.438,1.507-23.159,2.226-2.451.228-3.725-.625-4.555-2.872q-7.6-20.577-15.216-41.152c-1.538-4.137-2.926-8.333-4.734-12.366a5.768,5.768,0,0,1,.882-4.57c2.024-3.6,4.262-7.081,5.973-10.852a2.8,2.8,0,0,0,.725-2.867c-.96-5.752-1.96-11.5-2.933-17.246a5.124,5.124,0,0,0-1.267-2.624c-4.175-4.717-8.314-9.465-12.485-14.185a5.623,5.623,0,0,1-1.5-2.668q-.019-.375-.037-.749a.672.672,0,0,0,.14-.726l1.793-6.451c.4-1.448.82-2.892,1.2-4.346.669-2.558-.024-4.06-2.44-5.174-4.73-2.179-9.507-4.259-14.2-6.522a8.024,8.024,0,0,0-5.572-.6c-11.225,2.533-22.478,4.939-33.695,7.506a5.038,5.038,0,0,1-5.682-2.053q-10.326-12.943-20.843-25.732c-1.417-1.722-2.54-3.4-2.252-5.718.768-7.958,1.564-15.913,2.284-23.875a6.7,6.7,0,0,1,1.887-4.3q19.516-20.323,38.965-40.708a10.524,10.524,0,0,1,2.009-1.455l11.235-.64a1.99,1.99,0,0,0,1.278-.055c9.091-.4,18.183-.787,27.273-1.232A5.624,5.624,0,0,1-87.4,1787.9l-.018-.037.35.386-.072-.03c1.189,2.173.673,4.58.871,6.876a4.349,4.349,0,0,0,2.707,3.979c4.1,1.879,8.184,3.81,12.287,5.691,2.541,1.164,5.107,2.273,7.662,3.407a3.385,3.385,0,0,0,4.444-1.967c.516-1.133.905-2.324,1.376-3.479a3.686,3.686,0,0,1,4.135-2.593q14.774,1.255,29.544,2.566c1.451.127,2.9.412,4.349.4a5.367,5.367,0,0,1,5.395,3.185c3.341,6.237,6.665,12.484,10.025,18.712q11.973,22.2,23.973,44.382c1.356,2.511,2.571,3.085,5.36,2.463,3.811-.85,7.617-1.725,11.427-2.58,2.816-.632,4.364.255,5.244,2.984a2.068,2.068,0,0,0-.025,1.343q-.064.36-.129.719a5.71,5.71,0,0,0-.375.837c-1.485,5.469-3.079,10.912-4.388,16.423a12.326,12.326,0,0,1-4.324,6.76c-8.324,7.147-16.527,14.434-24.79,21.651A3.816,3.816,0,0,0,6,1923.021,32.386,32.386,0,0,0,6.559,1928.909Z" transform="translate(-310.33 -245)"/><path class="a" d="M437.893,2367.828l-.2-3.4a13.675,13.675,0,0,0,.063-3.507c.622-1.922,2.037-3.364,3.084-5.026a5.783,5.783,0,0,0,1.011-3.364q-.106-3.274-.21-6.547c-.082-2.551.892-3.865,3.347-4.509a14.088,14.088,0,0,1,1.965-.487,7.59,7.59,0,0,0,6.225-4.285c1.254-2.319,2.73-2.915,4.511-2.491,2.228.53,2.776,2.211,2.912,4.187a.623.623,0,0,0-.135.712l-.106.587a2.317,2.317,0,0,0-.687,1.194q-5.263,12.524-10.505,25.057a4.441,4.441,0,0,1-3.2,2.9c-.708.168-1.395.422-2.089.643C440.813,2370.467,439.92,2370.22,437.893,2367.828Z" transform="translate(-732.387 -621.163)"/><g transform="translate(-553.735 1453.613)"><path class="b" d="M64.7,1467.466c.095.071.192.139.288.208,2.643,1.909,5.276,3.833,7.938,5.715a1.087,1.087,0,0,1,.471,1.418c-1.066,3.213-2.106,6.434-3.182,9.644-.2.585-.452,1.152.154,1.6.621.464,1.114,0,1.586-.341,2.717-1.963,5.447-3.909,8.127-5.921a1.192,1.192,0,0,1,1.7.026c2.74,2.032,5.516,4.016,8.274,6.025.429.312.885.575,1.377.243s.421-.828.248-1.353c-1.048-3.188-2.04-6.4-3.122-9.572a1.487,1.487,0,0,1,.607-2c2.722-1.9,5.4-3.866,8.1-5.811.436-.315.909-.652.711-1.294-.2-.659-.758-.73-1.359-.728-3.227.008-6.454,0-9.681,0-1.673,0-1.673,0-2.088-1.65-.007-.029-.006-.06-.015-.087-.976-3-1.943-5.994-2.94-8.982-.153-.458-.329-1-.976-.993-.68.006-.859.552-1.024,1.057q-1.622,4.949-3.213,9.908a.9.9,0,0,1-1,.757c-1.776-.032-3.552-.012-5.329-.012v0c-1.658,0-3.316,0-4.974,0-.6,0-1.243-.073-1.493.645C63.621,1466.732,64.2,1467.092,64.7,1467.466Z" transform="translate(45.934 -1453.613)"/><path class="b" d="M-434.522,2391.295c-3.376,0-6.753-.045-10.128.025a1.326,1.326,0,0,1-1.546-1.12q-1.4-4.564-2.916-9.089c-.2-.606-.24-1.562-1.218-1.511-.925.048-.94.938-1.153,1.581-1.047,3.161-2.087,6.323-3.094,9.5a.768.768,0,0,1-.884.623c-1.777-.018-3.554-.007-5.331-.008-1.718,0-3.435,0-5.153,0-.626,0-1.234.088-1.451.76-.207.641.342.947.761,1.253,2.756,2.014,5.511,4.03,8.29,6.013a1.1,1.1,0,0,1,.5,1.423c-.681,2.042-1.331,4.094-1.989,6.143q-.66,2.056-1.308,4.115a.838.838,0,0,0,.3,1.026.908.908,0,0,0,1.148-.058c.141-.106.294-.2.437-.3,2.717-1.969,5.446-3.92,8.138-5.922a1.163,1.163,0,0,1,1.634,0c2.768,2.049,5.566,4.058,8.354,6.079.417.3.839.57,1.363.189s.4-.886.251-1.365c-1.064-3.311-2.119-6.625-3.239-9.916a1,1,0,0,1,.428-1.379c2.833-2.006,5.637-4.052,8.445-6.092.429-.311.85-.648.652-1.3C-433.439,2391.3-433.973,2391.294-434.522,2391.295Z" transform="translate(482.776 -2215.029)"/><path class="b" d="M385.159,1525.354c2.7,1.987,5.394,3.98,8.136,5.907a1.3,1.3,0,0,1,.56,1.716c-.661,1.954-1.3,3.916-1.939,5.877-.421,1.29-.838,2.582-1.234,3.88-.15.491-.235,1.027.282,1.365.475.311.9.049,1.3-.237.071-.051.145-.1.217-.151,2.738-1.986,5.487-3.957,8.2-5.971a1.082,1.082,0,0,1,1.543,0c2.781,2.079,5.6,4.1,8.409,6.149.406.3.847.513,1.3.209a1.032,1.032,0,0,0,.359-1.271c-1.094-3.387-2.168-6.78-3.31-10.151a.889.889,0,0,1,.358-1.237c2.8-2,5.58-4.029,8.363-6.053.449-.326,1.022-.632.814-1.319-.226-.748-.882-.748-1.529-.746-3.435.009-6.87-.01-10.3.018a.873.873,0,0,1-.986-.655q-.758-2.354-1.515-4.707c-.607-1.88-1.208-3.762-1.827-5.638a.912.912,0,0,0-.908-.719.877.877,0,0,0-.887.726c-.047.2-.156.384-.221.58-1.062,3.243-2.139,6.481-3.164,9.735a.816.816,0,0,1-.943.674c-1.776-.019-3.553-.007-5.329-.007v0c-1.688,0-3.376.013-5.063-.007-.629-.007-1.223.039-1.468.717C384.126,1524.738,384.73,1525.038,385.159,1525.354Z" transform="translate(-217.607 -1501.309)"/><path class="b" d="M-212.232,2612.968c-3.346.007-6.693-.053-10.037.023-1.009.023-1.362-.348-1.638-1.233-1.006-3.234-2.094-6.442-3.14-9.664-.16-.491-.4-.889-.962-.862-.541.026-.758.42-.917.917-1.05,3.281-2.144,6.548-3.186,9.832a1.193,1.193,0,0,1-1.368,1.011c-1.685-.067-3.375-.02-5.063-.02-1.806,0-3.613.01-5.419-.005a1.015,1.015,0,0,0-1.087.721c-.157.466.105.782.46,1.042.142.1.276.221.419.324q4.134,3.011,8.27,6.018c.343.249.65.452.47.994-1.11,3.358-2.192,6.725-3.279,10.091-.176.544-.345,1.122.2,1.553s1,.029,1.423-.277c2.784-2.017,5.57-4.031,8.335-6.075a1.078,1.078,0,0,1,1.525-.022c2.832,2.107,5.711,4.15,8.556,6.24a.988.988,0,0,0,1.136.183.933.933,0,0,0,.421-1.08,4.827,4.827,0,0,0-.134-.606c-1.065-3.276-2.115-6.557-3.221-9.82a.857.857,0,0,1,.365-1.171q4.268-3.056,8.5-6.155c.43-.313.915-.644.679-1.289C-211.14,2613.04-211.66,2612.967-212.232,2612.968Z" transform="translate(299.946 -2397.273)"/><path class="b" d="M623.561,1764.031c.112.094.237.173.356.259q4.2,3.058,8.4,6.119c.321.234.725.407.534.972-.773,2.291-1.517,4.592-2.271,6.889-.386,1.176-.788,2.347-1.15,3.531a.987.987,0,0,0,.264,1.212,1.084,1.084,0,0,0,1.247-.058,5.43,5.43,0,0,0,.568-.42c2.713-1.97,5.432-3.93,8.133-5.915.4-.3.68-.434,1.156-.08,2.171,1.615,4.377,3.183,6.568,4.771.739.536,1.47,1.082,2.208,1.619a1.031,1.031,0,0,0,1.242.089c.425-.276.334-.715.263-1.125a4.4,4.4,0,0,0-.159-.6c-1.052-3.249-2.094-6.5-3.175-9.741a.828.828,0,0,1,.389-1.1c1.081-.757,2.135-1.553,3.2-2.328q2.679-1.944,5.362-3.881c.424-.306.82-.643.633-1.236s-.7-.644-1.231-.628c-.177.005-.355-.005-.533-.005-3.287,0-6.573-.014-9.86.014-.655.005-1.035-.162-1.236-.831-.5-1.663-1.058-3.308-1.6-4.958-.577-1.764-1.162-3.525-1.741-5.289a.916.916,0,0,0-1.767,0c-.154.413-.275.837-.412,1.257-.985,3.025-1.976,6.049-2.949,9.078a.983.983,0,0,1-1.124.743c-1.717-.032-3.434-.011-5.152-.011v.012c-1.865,0-3.73,0-5.6,0a.842.842,0,0,0-.915.547A.927.927,0,0,0,623.561,1764.031Z" transform="translate(-413.997 -1697.846)"/><path class="b" d="M-211.918,1552.32c-.118,0-.237-.005-.355-.005h-9.769c-1.465,0-1.425-.013-1.872-1.419-1-3.142-2.046-6.268-3.065-9.4-.167-.513-.389-.949-1.016-.924-.579.023-.758.456-.911.929-1.069,3.307-2.158,6.608-3.213,9.92a1.079,1.079,0,0,1-1.2.9c-1.746-.038-3.493-.013-5.239-.013v0c-1.746,0-3.493,0-5.239,0-.51,0-1.067.02-1.256.6-.2.62.243.953.7,1.281,2.838,2.041,5.658,4.106,8.5,6.143.475.341.711.652.388,1.237a5.907,5.907,0,0,0-.3,1.013c-1,3.022-2,6.04-2.987,9.066-.147.452-.225.958.249,1.3a1.1,1.1,0,0,0,1.323-.1c.149-.094.287-.206.429-.31,2.732-1.993,5.47-3.978,8.19-5.987a.861.861,0,0,1,1.24-.008c1.229.956,2.512,1.841,3.773,2.755q2.463,1.787,4.925,3.577a.994.994,0,0,0,1.232.093c.381-.258.357-.651.285-1.04a5.457,5.457,0,0,0-.169-.687c-1.04-3.22-2.061-6.447-3.149-9.651a.941.941,0,0,1,.411-1.261q1.582-1.122,3.149-2.265,2.75-2,5.492-4c.375-.274.682-.609.513-1.122A.97.97,0,0,0-211.918,1552.32Z" transform="translate(299.951 -1525.114)"/><path class="b" d="M-434.278,1774.164c-3.406,0-6.812-.045-10.216.024-.96.02-1.27-.4-1.521-1.188-1.033-3.26-2.109-6.505-3.174-9.755-.151-.462-.372-.874-.952-.873s-.783.382-.942.88c-1.039,3.26-2.117,6.507-3.146,9.77-.249.791-.566,1.225-1.524,1.168-1.652-.1-3.315-.027-4.973-.027v.009c-1.836,0-3.672-.018-5.507.007-.935.013-1.288.6-.811,1.3a2.363,2.363,0,0,0,.56.551q4.133,3.019,8.281,6.017a1.088,1.088,0,0,1,.522,1.45c-1.1,3.2-2.124,6.427-3.16,9.65-.171.531-.4,1.191.087,1.584.511.409,1.124.166,1.613-.257.066-.057.15-.094.221-.146,2.732-1.985,5.474-3.958,8.185-5.97a.85.85,0,0,1,1.225.01c2.815,2.078,5.665,4.109,8.486,6.179a1.205,1.205,0,0,0,1.464.2c.5-.338.346-.906.192-1.386-1.075-3.342-2.144-6.687-3.27-10.012a.865.865,0,0,1,.359-1.175q4.305-3.076,8.59-6.181c.4-.29.807-.587.617-1.224C-433.269,1774.1-433.78,1774.164-434.278,1774.164Z" transform="translate(482.625 -1707.499)"/><path class="b" d="M-536.017,2096.929c.7.58,1.453,1.1,2.191,1.637,2.141,1.554,4.278,3.115,6.438,4.641.38.268.825.641,1.357.179a1.022,1.022,0,0,0,.274-1.207q-1.679-5.119-3.371-10.234a.819.819,0,0,1,.375-1.114c.668-.424,1.29-.918,1.93-1.386,2.232-1.631,4.46-3.269,6.7-4.893.412-.3.733-.621.567-1.171-.18-.6-.666-.688-1.2-.669-.089,0-.178,0-.266,0-3.405,0-6.81,0-10.215.012-.515,0-.918-.049-1.1-.628-.734-2.335-1.487-4.663-2.235-6.993-.36-1.122-.707-2.247-1.093-3.36a.956.956,0,0,0-.951-.778c-.5.012-.726.325-.876.74-.07.194-.158.381-.222.577-1.061,3.253-2.132,6.5-3.165,9.765a.841.841,0,0,1-.964.674c-1.777-.019-3.553-.007-5.33-.007v0c-1.806,0-3.613,0-5.419,0a1.028,1.028,0,0,0-1.071.626c-.2.505.089.838.467,1.122.283.212.555.441.841.648,2.573,1.864,5.135,3.743,7.733,5.57a1.042,1.042,0,0,1,.51,1.385q-1.22,3.6-2.359,7.232a23.908,23.908,0,0,0-.925,2.948c-.081.459-.112.879.314,1.2.471.35.86.035,1.215-.193.617-.4,1.195-.853,1.789-1.283,2.307-1.672,4.62-3.335,6.916-5.023A.792.792,0,0,1-536.017,2096.929Z" transform="translate(553.735 -1961.249)"/><path class="b" d="M739.8,2083.406a.984.984,0,0,0-1.032-.675c-.237,0-.474,0-.711,0-3.317,0-6.634-.013-9.951.012-.628,0-.98-.162-1.155-.806-.27-.995-.635-1.964-.952-2.947-.752-2.331-1.487-4.666-2.258-6.991-.163-.491-.341-1.05-1.052-1.015-.682.034-.828.555-1,1.071-1.055,3.252-2.138,6.5-3.153,9.76a1.076,1.076,0,0,1-1.226.929c-3.495-.036-6.99-.015-10.484-.019-.5,0-.958.083-1.137.636a.99.99,0,0,0,.527,1.19c.266.184.516.39.778.581q3.919,2.859,7.845,5.709c.371.268.619.513.438,1.016-.3.832-.567,1.676-.838,2.519q-1.164,3.615-2.32,7.233a2.1,2.1,0,0,0,.131.63,2.1,2.1,0,0,1-.131-.63l-.294.122c-.045,1.829.284,2.157,1.66,1.659.028-.1.238-.079.169-.248,2.761-2,5.543-3.981,8.269-6.031a1.085,1.085,0,0,1,1.571-.009c2.737,2.031,5.505,4.02,8.274,6.008.414.3.851.738,1.432.344.562-.381.407-.948.253-1.449-.511-1.659-1.055-3.308-1.593-4.959q-.8-2.442-1.6-4.879a1.114,1.114,0,0,1,.508-1.49c1.258-.817,2.447-1.74,3.66-2.624q2.461-1.793,4.917-3.593A.9.9,0,0,0,739.8,2083.406Zm-27.339,19.2a1.341,1.341,0,0,1-.15-.233,1.341,1.341,0,0,0,.15.233,1.264,1.264,0,0,0,.192.191A1.264,1.264,0,0,1,712.465,2102.6Z" transform="translate(-481.823 -1961.261)"/><path class="b" d="M97.5,2723.883a.109.109,0,0,0,.057-.081c-.267-.347-.651-.225-.989-.225q-5.013-.014-10.026,0a2.181,2.181,0,0,1-1.333-.35q-.579-1.76-1.158-3.519-1.134-3.431-2.268-6.862c-.149-.451-.389-.809-.917-.816-.573-.008-.825.4-.982.861-.274.809-.511,1.631-.781,2.441q-1.253,3.766-2.518,7.528c-.388.742-1.059.723-1.77.718q-4.9-.03-9.806,0c-.274,0-.647-.211-.838.2a.541.541,0,0,0,.027.1c-.677.736-.6,1.186.3,1.837,2.739,1.981,5.456,3.993,8.229,5.926a1.3,1.3,0,0,1,.529,1.777c-1.1,3.26-2.156,6.537-3.243,9.8a.975.975,0,0,0,.3,1.194,1.01,1.01,0,0,0,1.238-.082c.047-.035.084-.084.131-.118,2.732-1.983,5.486-3.938,8.185-5.967a1.419,1.419,0,0,1,2.009.021c2.68,2.006,5.406,3.95,8.106,5.929.437.321.9.554,1.383.247.509-.325.406-.853.241-1.361-1.036-3.193-2.04-6.4-3.11-9.578a1.417,1.417,0,0,1,.567-1.926c2.789-1.955,5.526-3.983,8.271-6,.823-.6.839-.984.167-1.71Zm-22.508-.009c.159.01.32.033.479.035C75.312,2723.907,75.151,2723.885,74.992,2723.874Zm.559.035h0Z" transform="translate(45.994 -2488.381)"/><path class="b" d="M656.51,2403c-.266.012-.533,0-.8,0-3.258,0-6.516-.018-9.773.016a1.071,1.071,0,0,1-1.23-.848c-.4-1.356-.826-2.7-1.262-4.05q-.981-3.029-1.993-6.048c-.148-.444-.415-.821-.936-.805-.545.016-.8.385-.957.887-1.068,3.34-2.166,6.67-3.229,10.011a1.071,1.071,0,0,1-1.223.858c-1.717-.044-3.435-.015-5.153-.015v0c-1.57,0-3.14-.012-4.709.006-.649.007-1.451-.239-1.728.661s.507,1.215,1.046,1.644c.023.019.048.034.072.052q4.017,2.892,8.034,5.784c.32.23.6.456.433.941-.766,2.291-1.508,4.589-2.262,6.883-.377,1.149-.768,2.294-1.138,3.446a1.079,1.079,0,0,0,.332,1.357.945.945,0,0,0,1.214-.178,4.108,4.108,0,0,1,.369-.245c2.694-1.958,5.4-3.9,8.072-5.888a1.2,1.2,0,0,1,1.707,0c2.786,2.079,5.624,4.087,8.422,6.149a1,1,0,0,0,1.214.146.952.952,0,0,0,.32-1.189c-.208-.676-.408-1.354-.624-2.028q-1.34-4.166-2.692-8.328a.813.813,0,0,1,.321-1.065c1.518-1.068,3.018-2.16,4.52-3.25q2.141-1.555,4.269-3.127a.912.912,0,0,0,.439-1.141A1.034,1.034,0,0,0,656.51,2403Z" transform="translate(-414.246 -2224.617)"/><path class="b" d="M417.433,2641.971c-3.345-.01-6.69-.037-10.034.016a1.378,1.378,0,0,1-1.556-1.164c-1.03-3.29-2.121-6.56-3.185-9.839a1,1,0,0,0-.959-.78c-.467-.011-.709.288-.858.744-1.045,3.222-2.127,6.433-3.173,9.656-.433,1.333-.406,1.351-1.846,1.354-3.226.006-6.453,0-9.679,0-.586,0-1.262-.1-1.491.639-.211.681.338,1,.8,1.331,2.789,2.025,5.573,4.057,8.371,6.069.435.313.622.576.407,1.159-.52,1.408-.99,2.84-1.388,4.288a25.246,25.246,0,0,0-1.17,3.967l-.282.251c0,.689-.455,1.26-.5,1.938-.025.381-.089.777.3,1.026a1.03,1.03,0,0,0,1.161-.062c.385-.243.729-.552,1.091-.832l.159-.146c2.463-1.769,4.935-3.525,7.382-5.315a1.065,1.065,0,0,1,1.485-.008c2.788,2.076,5.606,4.111,8.413,6.163.4.292.845.528,1.3.228a1.152,1.152,0,0,0,.35-1.441c-1.075-3.3-2.144-6.61-3.273-9.9a.949.949,0,0,1,.388-1.317c2.826-2.022,5.623-4.086,8.434-6.128.481-.349.905-.718.645-1.385C418.49,2641.88,417.921,2641.972,417.433,2641.971Z" transform="translate(-217.842 -2421.097)"/></g></g></svg>