<svg xmlns="http://www.w3.org/2000/svg" width="77.393" height="38" viewBox="0 0 77.393 38"><defs><style>.a{fill:#fff;}.b{fill:#bdcf00;}</style></defs><g transform="translate(0 0)"><path class="a" d="M20.222,51.779l.277-1.556H13.787v0a1.606,1.606,0,0,0-1.512,1.264l-2.59,14.69h0a1.043,1.043,0,0,0,1.047,1.292h7.325l.274-1.553H12.039l1.163-6.6h5.115l.267-1.528H13.469l1.063-6.017Z" transform="translate(-8.169 -42.449)"/><path class="a" d="M76.914,86.781c-2.958,0-4.671-2.656-3.9-7.02.783-4.439,3.417-6.994,6.426-6.994a3.768,3.768,0,0,1,2.826.9l-.751,1.279a2.68,2.68,0,0,0-1.892-.651c-2.458,0-3.8,2.229-4.36,5.388-.572,3.235.189,5.467,2.37,5.467A3.962,3.962,0,0,0,79.8,84.5l.308,1.377a5.216,5.216,0,0,1-3.194.9" transform="translate(-61.555 -61.504)"/><path class="a" d="M138.335,74.171c-2.581,0-3.593,2.883-4.077,5.615s-.409,5.467,2.122,5.467c2.584,0,3.546-2.76,4.021-5.467s.516-5.615-2.065-5.615M136.112,86.78c-3.687,0-4.756-3.033-4.058-6.994.71-4.036,2.867-7.02,6.5-7.02,3.709,0,4.762,2.983,4.049,7.02-.7,3.961-2.836,6.994-6.495,6.994" transform="translate(-111.444 -61.503)"/><path class="a" d="M288.105,78.858c-3.483.424-5.643,1.151-6.124,3.886-.346,1.955.714,2.757,2.722,2.757a5.431,5.431,0,0,0,2.31-.449Zm-3.8,7.922c-3.508,0-4.869-1.528-4.436-3.986.632-3.587,4.175-4.637,8.441-5.064l.145-.827c.368-2.081-.78-2.682-2.512-2.682a8.543,8.543,0,0,0-3.408.852l-.3-1.3a10.057,10.057,0,0,1,4.313-1c2.509,0,4.527,1.078,3.942,4.385l-1.531,8.677a10.532,10.532,0,0,1-4.656.952" transform="translate(-236.481 -61.503)"/><path class="a" d="M357.67,86.529l1.71-9.7c.223-1.254-.063-2.631-2.367-2.631a6.2,6.2,0,0,0-2.641.475l-2.094,11.858h-2.2l2.257-12.81a12.478,12.478,0,0,1,5.105-.953c3.763,0,4.5,2.081,4.159,4.011l-1.72,9.752Z" transform="translate(-295.888 -61.503)"/><path class="b" d="M79.281,179.327H4.793l.069-.443H79.344Z" transform="translate(-4.051 -151.195)"/><path class="a" d="M214.114,47.459c-.6,3.411-2.116,5.743-4.9,5.743a4.076,4.076,0,0,1-1.848-.327l1.826-10.355a4.57,4.57,0,0,1,2.3-.525c2.556,0,3.144,2.509,2.622,5.464m-1.842-6.768a6.109,6.109,0,0,0-2.867.625l1.163-6.589-2.43,1.405-3.093,17.545a6.713,6.713,0,0,0,3.87.952c4.011,0,6.655-2.908,7.419-7.246.72-4.087-.952-6.693-4.062-6.693" transform="translate(-173.307 -29.352)"/><path class="a" d="M302.781,11.515h-2.3l-5.919,6.265h-.05l1.509-8.538C297.516.786,288.39-1,278.861.459a53.15,53.15,0,0,0-12.2,3.574,60.911,60.911,0,0,1,14.043-2.987c8.3-.471,14.8.786,12.9,9.579l-2.54,14.4h2.157l1.229-6.973h.05l3.936,6.973h2.509l-4.4-7.2Z" transform="translate(-225.388 0)"/><path class="a" d="M1.962,207.4l-.946,5.363H.226l.946-5.363H0l.094-.531H3.229l-.094.531Z" transform="translate(0 -174.849)"/><path class="a" d="M22.318,208.232l.575-3.272c.085-.478-.044-.908-.78-.908a1.843,1.843,0,0,0-.94.229l-.7,3.952h-.754l1.188-6.724h.751l-.412,2.348a2.551,2.551,0,0,1,1.11-.283c1.176,0,1.408.707,1.3,1.358l-.582,3.3Z" transform="translate(-16.668 -170.317)"/><path class="a" d="M50.683,215.054c-.67,0-1.261.541-1.465,1.792l2.27-.336c.182-1.047-.148-1.456-.8-1.456m-1.509,2.194c-.1,1.044.3,1.559,1.129,1.559a2.558,2.558,0,0,0,1.185-.267l.11.5a3.149,3.149,0,0,1-1.452.317c-1.207,0-1.921-.764-1.631-2.408.28-1.569,1.191-2.38,2.279-2.38,1.107,0,1.647.72,1.358,2.26Z" transform="translate(-40.951 -181.355)"/><path class="a" d="M96.079,206.776a1.981,1.981,0,0,0-.688.11l-.434,2.468.252.025c1.223.123,1.773-.446,1.927-1.3s-.157-1.3-1.056-1.3m-.946,3.084-.261-.025-.434,2.449h-.77l1-5.655A3.418,3.418,0,0,1,96.2,206.3c1.39,0,1.883.748,1.7,1.783a2.264,2.264,0,0,1-2.763,1.776" transform="translate(-79.17 -174.368)"/><path class="a" d="M123.409,216.648c-1.188.148-1.927.393-2.091,1.327-.119.667.245.943.931.943a1.9,1.9,0,0,0,.789-.154Zm-1.3,2.707c-1.2,0-1.663-.525-1.515-1.364.217-1.223,1.427-1.581,2.883-1.729l.05-.283c.126-.71-.267-.915-.858-.915a2.922,2.922,0,0,0-1.163.289l-.1-.446a3.48,3.48,0,0,1,1.474-.34c.858,0,1.547.368,1.345,1.5l-.522,2.961a3.544,3.544,0,0,1-1.591.327" transform="translate(-101.907 -181.355)"/><path class="a" d="M149.76,219.271l.585-3.316c.075-.428-.022-.9-.811-.9a2.112,2.112,0,0,0-.9.164l-.714,4.052h-.754l.773-4.376a4.228,4.228,0,0,1,1.745-.327c1.286,0,1.537.71,1.421,1.371l-.588,3.332Z" transform="translate(-124.384 -181.356)"/><path class="a" d="M193.568,208.291a3.777,3.777,0,0,1-.044-.71h-.019a5.216,5.216,0,0,1-.3.71l-1.1,2.238h1.757Zm.582,4.473L193.9,211h-2.021L191,212.764h-.72l3.034-5.894h.7l.946,5.894Z" transform="translate(-160.827 -174.849)"/><path class="a" d="M227.938,204.071l-.729,4.15h-.758l.732-4.15h-.534l.085-.468h.531l.116-.651A1.657,1.657,0,0,1,229.2,201.5l-.082.478a.956.956,0,0,0-.965.893l-.129.736h.8l-.082.468Z" transform="translate(-191.4 -170.306)"/><path class="a" d="M244.481,215.166a1.4,1.4,0,0,0-1.066.085l-.714,4.036h-.755l.77-4.37a4.044,4.044,0,0,1,2.043-.327Z" transform="translate(-204.497 -181.372)"/><path class="a" d="M261.453,204.819a.351.351,0,0,1-.374-.412.536.536,0,0,1,.519-.421.351.351,0,0,1,.365.421.536.536,0,0,1-.509.412m-1.349,5.508.814-4.618h.754l-.814,4.618Z" transform="translate(-219.844 -172.412)"/><path class="a" d="M274.962,219.355c-1.012,0-1.6-.909-1.333-2.4.264-1.518,1.166-2.389,2.194-2.389a1.277,1.277,0,0,1,.965.308l-.258.434a.915.915,0,0,0-.644-.22c-.842,0-1.3.764-1.493,1.842-.192,1.1.066,1.867.811,1.867a1.393,1.393,0,0,0,.745-.22l.1.468a1.811,1.811,0,0,1-1.091.308" transform="translate(-231.222 -181.355)"/><path class="a" d="M297.254,216.648c-1.188.148-1.927.393-2.091,1.327-.119.667.242.943.927.943a1.893,1.893,0,0,0,.792-.154Zm-1.3,2.707c-1.2,0-1.666-.525-1.515-1.364.214-1.223,1.427-1.581,2.883-1.729l.05-.283c.126-.71-.267-.915-.858-.915a2.9,2.9,0,0,0-1.163.289l-.1-.446a3.468,3.468,0,0,1,1.474-.34c.858,0,1.547.368,1.349,1.5l-.525,2.961a3.544,3.544,0,0,1-1.591.327" transform="translate(-248.842 -181.355)"/><path class="a" d="M323.629,219.271l.582-3.316c.076-.428-.022-.9-.808-.9a2.117,2.117,0,0,0-.905.164l-.714,4.052h-.751l.77-4.376a4.239,4.239,0,0,1,1.745-.327c1.286,0,1.537.71,1.421,1.371l-.588,3.332Z" transform="translate(-271.341 -181.356)"/><path class="a" d="M370.078,206.758a2.371,2.371,0,0,0-.8.129l-.371,2.1h.384c1.216,0,1.7-.374,1.83-1.144.132-.723-.236-1.081-1.041-1.081m-.846,2.622h-.4l-.412,2.348a1.861,1.861,0,0,0,.8.135,1.411,1.411,0,0,0,1.578-1.166c.157-.915-.3-1.317-1.575-1.317m-.06,2.99a3.092,3.092,0,0,1-1.55-.327l.952-5.413a3.628,3.628,0,0,1,1.591-.327c1.3,0,1.877.619,1.726,1.474a1.713,1.713,0,0,1-1.386,1.374l0,.016a1.339,1.339,0,0,1,1.1,1.525,2.175,2.175,0,0,1-2.433,1.679" transform="translate(-310.72 -174.369)"/><path class="a" d="M400.048,216.648c-1.188.148-1.927.393-2.094,1.327-.116.667.245.943.931.943a1.914,1.914,0,0,0,.792-.154Zm-1.3,2.707c-1.2,0-1.666-.525-1.518-1.364.22-1.223,1.427-1.581,2.886-1.729l.047-.283c.126-.71-.264-.915-.855-.915a2.924,2.924,0,0,0-1.166.289l-.1-.446a3.464,3.464,0,0,1,1.471-.34c.858,0,1.55.368,1.349,1.5l-.522,2.961a3.553,3.553,0,0,1-1.591.327" transform="translate(-335.723 -181.355)"/><path class="a" d="M427.025,219.271l.585-3.316c.072-.428-.022-.9-.811-.9a2.128,2.128,0,0,0-.906.164l-.71,4.052h-.755l.773-4.376a4.228,4.228,0,0,1,1.745-.327c1.283,0,1.534.71,1.421,1.371l-.591,3.332Z" transform="translate(-358.733 -181.356)"/><path class="a" d="M455.5,208.232l-1.342-2.38h-.022l-.418,2.38h-.736l1.185-6.724h.736l-.748,4.25h.016l2.028-2.144h.783l-2.125,2.16,1.5,2.458Z" transform="translate(-382.869 -170.317)"/></g></svg>