<svg xmlns="http://www.w3.org/2000/svg" width="19.316" height="18.458" viewBox="0 0 19.316 18.458"><defs><style>.a{fill:#5c8fa3;}</style></defs><path class="a" d="M200.767,38.837v7.144h-4.141V39.316c0-1.673-.6-2.817-2.1-2.817a2.267,2.267,0,0,0-2.123,1.516,2.8,2.8,0,0,0-.138,1.009v6.956h-4.142s.057-11.287,0-12.456h4.142V35.29a.4.4,0,0,1-.028.041h.028V35.29A4.117,4.117,0,0,1,196,33.233c2.724,0,4.767,1.78,4.767,5.6ZM183.794,27.522a2.158,2.158,0,1,0-.055,4.3h.026a2.159,2.159,0,1,0,.029-4.3Zm-2.1,18.459h4.14V33.524H181.7Zm0,0" transform="translate(-181.451 -27.522)"/></svg>