<svg xmlns="http://www.w3.org/2000/svg" width="138.386" height="30.938" viewBox="0 0 138.386 30.938"><defs><style>.a{fill:#fff;}.b{fill:#2baab4;}.c{fill:#0a808f;}</style></defs><circle class="a" cx="12" cy="12" r="12" transform="translate(2.235 1.469)"/><g transform="translate(42.235 6.738)"><g transform="translate(64.299)"><path class="a" d="M223.788,469.386a7.807,7.807,0,0,1,5.826,14.353c-1.77,1.19-3.962.553-5.948.693a7.765,7.765,0,0,1-5.683-7.6A7.854,7.854,0,0,1,223.788,469.386Zm1.526,3.488a4.07,4.07,0,1,0,4.373,3.634A4.114,4.114,0,0,0,225.313,472.873Z" transform="translate(-217.98 -469.141)"/></g><g transform="translate(0 0.601)"><path class="a" d="M100.762,470.252c2.321-.016,4.645-.016,6.966-.013a4.858,4.858,0,0,1,3.627,1.8,5.227,5.227,0,0,1-.633,7.264c-1.694,1.545-4.118,1.227-6.223,1.276.016,1.565.01,3.13.01,4.695h-3.747Zm3.727,3.395c.039,1.171-.024,2.344.066,3.511.945-.063,1.887-.007,2.832-.016a1.77,1.77,0,0,0,1.257-2.726C107.721,473.07,105.851,473.749,104.489,473.647Z" transform="translate(-100.762 -470.237)"/></g><g transform="translate(13.763 0.676)"><path class="a" d="M132,470.38c1.177-.014,2.354,0,3.531.02q3,7.485,6.1,14.933h-4.2c-.3-1.021-.729-2-1.127-2.98-1.731.02-3.461-.02-5.192.033-.358.991-.7,1.986-1.137,2.947h-4.118C127.924,480.36,129.923,475.353,132,470.38Zm.282,9.078c.964.01,1.929.023,2.9.013-.417-1.253-.985-2.45-1.356-3.717A34.883,34.883,0,0,0,132.278,479.458Z" transform="translate(-125.852 -470.374)"/></g><path class="a" d="M154.556,470.372c1.33.013,2.663-.07,3.992.02a40.756,40.756,0,0,1,2.865,4q-.025.965-.04,1.933c1.512-1.963,2.882-4.025,4.4-5.985,1.323.027,2.646.02,3.969.027-1.727,2.573-3.524,5.1-5.275,7.659a2.513,2.513,0,0,0-.348,1.661c.016,1.877.01,3.753.01,5.63H160.3c.013-2.1.036-4.194.007-6.293.033-.474-.338-.826-.557-1.2C158.014,475.339,156.257,472.875,154.556,470.372Z" transform="translate(-125.047 -469.683)"/><path class="a" d="M187.961,470.392c4.131-.02,8.263-.04,12.394.01-.02,1.081-.023,2.162,0,3.243-1.817.01-3.634-.04-5.448.033.026,3.883,0,7.768.013,11.654h-3.743q0-5.818,0-11.634c-1.813,0-3.627-.01-5.444.02C186.452,472.6,187.235,471.512,187.961,470.392Z" transform="translate(-139.119 -469.696)"/><g transform="translate(84.373 0.596)"><path class="a" d="M254.579,470.227c2.371.03,4.741-.016,7.112.017a5.134,5.134,0,0,1,4.662,4.854v.782a5.466,5.466,0,0,1-2.513,3.889c-1.648,1.031-3.657.749-5.5.782-.007,1.572,0,3.143,0,4.715h-3.71C254.519,480.257,254.615,475.24,254.579,470.227Zm3.76,3.382c-.007,1.167-.007,2.337,0,3.5,1-.02,2.013.053,3.021.027a1.811,1.811,0,0,0,.872-2.994C261.186,473.181,259.618,473.749,258.338,473.609Z" transform="translate(-254.573 -470.227)"/></g></g><path class="a" d="M51.509,466.808H76.831q.726,11.477,1.528,22.95c-4.7,2.685-9.448,5.284-14.136,7.988-4.788-2.618-9.522-5.337-14.283-8.01C50.535,482.1,50.939,474.447,51.509,466.808Zm1.071,1.126a21.845,21.845,0,0,1-.288,4.072,30.514,30.514,0,0,1-.324,4.577c.1,2.177-.444,4.3-.346,6.476a50.592,50.592,0,0,0-.382,6.417c4.308,2.2,8.545,4.544,12.841,6.766,4.249-2.3,8.523-4.562,12.8-6.821-.337-7.112-.98-14.212-1.362-21.322-3.76-.2-7.535.022-11.3-.11C60.342,467.842,56.46,467.953,52.58,467.934Z" transform="translate(-49.941 -466.808)"/><g transform="translate(1.298 1.104)"><path class="b" d="M52.939,468.239c3.879.019,7.762-.092,11.638.056-.16,2.06.162,4.139-.178,6.187a3.023,3.023,0,0,0-2.8,2.737,3.183,3.183,0,0,0,1.461,2.563c-.462,3.144-.992,6.28-1.464,9.421.94.018,1.877.034,2.817.031a47.87,47.87,0,0,1,.024,7.314c-4.3-2.223-8.533-4.565-12.841-6.766a50.591,50.591,0,0,1,.382-6.417c-.1-2.177.447-4.3.346-6.476a30.514,30.514,0,0,0,.324-4.577A21.847,21.847,0,0,0,52.939,468.239Z" transform="translate(-51.598 -468.217)"/></g><g transform="translate(14.099 1.182)"><path class="c" d="M68.11,468.316c3.762.132,7.537-.095,11.3.11.382,7.11,1.025,14.21,1.362,21.321-4.274,2.259-8.548,4.516-12.8,6.821a47.873,47.873,0,0,0-.024-7.314c1.038,0,2.072.006,3.107-.006-.52-3.15-1.05-6.3-1.626-9.442a2.969,2.969,0,0,0,1.427-2.909,3.032,3.032,0,0,0-2.924-2.394C68.272,472.455,67.95,470.376,68.11,468.316Z" transform="translate(-67.932 -468.316)"/></g></svg>