<svg xmlns="http://www.w3.org/2000/svg" width="17.544" height="17.544" viewBox="0 0 17.544 17.544"><defs><style>.a{fill:#ffe823;fill-rule:evenodd;}</style></defs><path class="a" d="M5.5,10.348l-.023-.068A17.372,17.372,0,0,1,4.5,5.475.978.978,0,0,1,5.475,4.5H8.4a1.949,1.949,0,0,1,1.949,1.949V8.4A1.949,1.949,0,0,1,8.4,10.348H7.582A15.647,15.647,0,0,0,16.2,18.961v-.815A1.949,1.949,0,0,1,18.145,16.2h1.949a1.949,1.949,0,0,1,1.949,1.949v2.924a1.137,1.137,0,0,1-.975.975,15.03,15.03,0,0,1-4.873-.975A17.692,17.692,0,0,1,5.5,10.348Z" transform="translate(-4.5 -4.5)"/></svg>