<svg xmlns="http://www.w3.org/2000/svg" width="17.544" height="21.173" viewBox="0 0 17.544 21.173"><defs><style>.a{fill:#ffe823;fill-rule:evenodd;}</style></defs><path class="a" d="M20.205,13.307a3.9,3.9,0,1,1-3.9-3.9,3.9,3.9,0,0,1,3.9,3.9Zm-1.949,0a1.949,1.949,0,1,1-1.949-1.949,1.949,1.949,0,0,1,1.949,1.949Z" transform="translate(-7.27 -4.27)"/><path class="a" d="M7.223,16.625a8.772,8.772,0,1,1,12.4-.3l-6.049,6.353Zm10.99-1.648-4.7,4.941-4.941-4.7a6.823,6.823,0,1,1,9.646-.237Z" transform="translate(-4.5 -1.5)"/></svg>