<svg xmlns="http://www.w3.org/2000/svg" xmlns:xlink="http://www.w3.org/1999/xlink" width="112.533" height="33.206" viewBox="0 0 112.533 33.206"><defs><style>.a{fill:#00435c;}.a,.c,.d,.e,.f,.g,.h,.i,.j{fill-rule:evenodd;}.b,.c,.j{fill:#fff;}.d{fill:url(#a);}.e{fill:url(#b);}.f{fill:url(#c);}.g{fill:url(#d);}.h{opacity:0.2;}.h,.i,.j{isolation:isolate;}.i{opacity:0.12;}.j{opacity:0.25;}</style><linearGradient id="a" x1="6.059" y1="-2.583" x2="5.947" y2="-2.554" gradientUnits="objectBoundingBox"><stop offset="0" stop-color="#00a0ff"/><stop offset="0.007" stop-color="#00a1ff"/><stop offset="0.26" stop-color="#00beff"/><stop offset="0.512" stop-color="#00d2ff"/><stop offset="0.76" stop-color="#00dfff"/><stop offset="1" stop-color="#00e3ff"/></linearGradient><linearGradient id="b" x1="6.399" y1="-7.895" x2="6.139" y2="-7.895" gradientUnits="objectBoundingBox"><stop offset="0" stop-color="#ffe000"/><stop offset="0.409" stop-color="#ffbd00"/><stop offset="0.775" stop-color="orange"/><stop offset="1" stop-color="#ff9c00"/></linearGradient><linearGradient id="c" x1="4.765" y1="-5.764" x2="4.674" y2="-5.611" gradientUnits="objectBoundingBox"><stop offset="0" stop-color="#ff3a44"/><stop offset="1" stop-color="#c31162"/></linearGradient><linearGradient id="d" x1="4.695" y1="-4.914" x2="4.735" y2="-4.845" gradientUnits="objectBoundingBox"><stop offset="0" stop-color="#32a071"/><stop offset="0.068" stop-color="#2da771"/><stop offset="0.476" stop-color="#15cf74"/><stop offset="0.801" stop-color="#06e775"/><stop offset="1" stop-color="#00f076"/></linearGradient></defs><path class="a" d="M108.363,2256.114H4.169A4.172,4.172,0,0,1,0,2251.963v-24.9a4.166,4.166,0,0,1,4.169-4.151H108.363a4.167,4.167,0,0,1,4.169,4.151v24.9A4.173,4.173,0,0,1,108.363,2256.114Z" transform="translate(0 -2222.908)"/><path class="b" d="M1679.335,2499.576a2.526,2.526,0,0,1-1.886-.781,2.658,2.658,0,0,1-.762-1.9,2.6,2.6,0,0,1,.762-1.9,2.519,2.519,0,0,1,1.884-.781,2.553,2.553,0,0,1,1.886.781,2.756,2.756,0,0,1,0,3.8A2.505,2.505,0,0,1,1679.335,2499.576Zm-22.36,0a2.619,2.619,0,0,1-1.894-.77,2.683,2.683,0,0,1,1.894-4.6,2.641,2.641,0,0,1,1.058.219,2.139,2.139,0,0,1,.805.576l.05.06-.561.551-.058-.068a1.6,1.6,0,0,0-1.3-.561,1.8,1.8,0,0,0-1.3.53,2.012,2.012,0,0,0,0,2.758,1.9,1.9,0,0,0,2.631,0,1.434,1.434,0,0,0,.381-.863h-1.8v-.774h2.571l.01.07a2.832,2.832,0,0,1,.037.389,2.331,2.331,0,0,1-.642,1.718A2.5,2.5,0,0,1,1656.975,2499.576Zm29.73-.11h-.793l-2.428-3.886.021.7v3.184h-.793v-5.145h.9l.025.039,2.283,3.66-.021-.7v-3h.8v5.146Zm-13.328,0h-.8v-4.372h-1.393v-.774h3.588v.774h-1.393v4.372Zm-2.851,0h-.8v-5.146h.8Zm-4.5,0h-.8v-4.372h-1.393v-.774h3.588v.774h-1.393Zm-2.7-.008h-3.072v-5.138h3.072v.774h-2.269v1.412h2.047v.766h-2.047v1.412h2.269Zm14.715-1.194a1.774,1.774,0,0,0,1.3.538,1.728,1.728,0,0,0,1.3-.538,2.04,2.04,0,0,0,0-2.741,1.777,1.777,0,0,0-1.3-.538,1.72,1.72,0,0,0-1.3.538,2.043,2.043,0,0,0,0,2.741Z" transform="translate(-1620.052 -2488.592)"/><path class="c" d="M1669.17,2909.829a3.532,3.532,0,1,0,3.542,3.532A3.476,3.476,0,0,0,1669.17,2909.829Zm0,5.664a2.146,2.146,0,1,1,1.991-2.141A2.044,2.044,0,0,1,1669.17,2915.493Zm-7.728-5.664a3.532,3.532,0,1,0,3.542,3.532A3.476,3.476,0,0,0,1661.442,2909.829Zm0,5.664a2.146,2.146,0,1,1,1.992-2.141A2.044,2.044,0,0,1,1661.442,2915.493Zm-9.2-4.585v1.495h3.588a3.149,3.149,0,0,1-.812,1.882,3.661,3.661,0,0,1-2.768,1.1,3.986,3.986,0,0,1,0-7.97,3.83,3.83,0,0,1,2.7,1.07l1.06-1.06a5.212,5.212,0,0,0-3.753-1.513,5.48,5.48,0,1,0,0,10.96,5.016,5.016,0,0,0,3.828-1.54,4.96,4.96,0,0,0,1.3-3.5,4.62,4.62,0,0,0-.083-.932h-5.064S1652.246,2910.908,1652.246,2910.908Zm37.614,1.163a3.282,3.282,0,0,0-3.025-2.25,3.355,3.355,0,0,0-3.329,3.532,3.452,3.452,0,0,0,3.5,3.532,3.506,3.506,0,0,0,2.942-1.567l-1.2-.8a2.008,2.008,0,0,1-1.735.977,1.8,1.8,0,0,1-1.716-1.07l4.722-1.957S1689.86,2912.071,1689.86,2912.071Zm-4.815,1.18a1.938,1.938,0,0,1,1.845-2.058,1.361,1.361,0,0,1,1.31.747Zm-3.836,3.422h1.551V2906.3h-1.551Zm-2.546-6.06h-.056a2.446,2.446,0,0,0-1.863-.793,3.532,3.532,0,0,0,0,7.057,2.439,2.439,0,0,0,1.863-.8h.056v.507c0,1.348-.72,2.074-1.882,2.074A1.958,1.958,0,0,1,1675,2917.4l-1.348.563a3.371,3.371,0,0,0,3.126,2.085c1.818,0,3.358-1.07,3.358-3.681v-6.337h-1.466v.582Zm-1.781,4.88a2.147,2.147,0,0,1,0-4.279,1.985,1.985,0,0,1,1.882,2.149A1.961,1.961,0,0,1,1676.882,2915.493Zm20.239-9.2h-3.708v10.376h1.551v-3.929h2.159a3.228,3.228,0,1,0,0-6.447Zm.046,5h-2.2v-3.561h2.2a1.781,1.781,0,1,1,0,3.561Zm9.575-1.484a2.921,2.921,0,0,0-2.768,1.586l1.375.572a1.474,1.474,0,0,1,1.412-.766,1.5,1.5,0,0,1,1.633,1.337v.11a3.472,3.472,0,0,0-1.615-.4c-1.484,0-2.989.812-2.989,2.333a2.4,2.4,0,0,0,2.573,2.288,2.183,2.183,0,0,0,1.973-1.014h.056v.8h1.495v-3.975A2.844,2.844,0,0,0,1706.74,2909.81Zm-.195,5.683c-.507,0-1.217-.249-1.217-.886,0-.8.886-1.107,1.642-1.107a2.691,2.691,0,0,1,1.412.35A1.867,1.867,0,0,1,1706.546,2915.493Zm8.792-5.461-1.781,4.5h-.056l-1.844-4.5h-1.669l2.768,6.292-1.578,3.5h1.615l4.259-9.788Zm-13.958,6.641h1.551V2906.3h-1.551Z" transform="translate(-1612.61 -2891.768)"/><path class="d" d="M400.479,2522.364a1.681,1.681,0,0,0-.379,1.172v18.357a1.6,1.6,0,0,0,.387,1.161l.064.056,10.285-10.285v-.23l-10.293-10.287Z" transform="translate(-391.817 -2516.11)"/><path class="e" d="M921.73,2860.509l-3.43-3.43v-.24l3.43-3.43.075.046,4.058,2.306a1.26,1.26,0,0,1,0,2.4l-4.058,2.306Z" transform="translate(-899.289 -2840.355)"/><path class="f" d="M432.254,3028.413l-3.5-3.5L418.4,3035.257a1.358,1.358,0,0,0,1.724.056l12.129-6.9" transform="translate(-409.738 -3008.305)"/><path class="g" d="M432.254,2516.556l-12.129-6.89a1.345,1.345,0,0,0-1.724.056l10.349,10.338Z" transform="translate(-409.738 -2503.458)"/><path class="h" d="M432.571,3190.608l-12.047,6.844a1.367,1.367,0,0,1-1.66.008l-.064.064.064.056a1.371,1.371,0,0,0,1.66-.008l12.129-6.89Z" transform="translate(-410.13 -3170.574)"/><path class="i" d="M1087.642,3025.987l-4.142,2.352.074.074,4.058-2.306a1.454,1.454,0,0,0,.868-1.2A1.494,1.494,0,0,1,1087.642,3025.987Z" transform="translate(-1061.069 -3008.305)"/><path class="j" d="M402.2,2509.615l16.187,9.2a1.527,1.527,0,0,1,.867,1.079,1.455,1.455,0,0,0-.867-1.2l-16.187-9.2c-1.161-.665-2.1-.11-2.1,1.217v.12C400.1,2509.5,401.042,2508.959,402.2,2509.615Z" transform="translate(-391.817 -2503.286)"/></svg>