<svg xmlns="http://www.w3.org/2000/svg" width="32.597" height="32.596" viewBox="0 0 32.597 32.596"><defs><style>.a,.b{fill:none;stroke-linecap:round;stroke-miterlimit:10;stroke-width:2px;}.a{stroke:#fff;}.b{stroke:#fee63f;}</style></defs><g transform="translate(1 1)"><path class="a" d="M-2249.918,1386.266a12.043,12.043,0,0,1-.582-3.711,12.055,12.055,0,0,1,12.055-12.055,12.042,12.042,0,0,1,3.791.608" transform="translate(2253.775 -1367.48)"/><path class="a" d="M-2107.613,1503.314a12.06,12.06,0,0,1,.545,3.595,12.055,12.055,0,0,1-12.055,12.055,10.486,10.486,0,0,1-3.714-.568" transform="translate(2134.454 -1491.834)"/><circle class="b" cx="5.949" cy="5.949" r="5.949" transform="translate(18.698)"/><circle class="b" cx="5.949" cy="5.949" r="5.949" transform="translate(0 18.698)"/><line class="a" y2="24.137" transform="translate(15.298 3.06)"/><path class="a" d="M-2109.857,1480.1a24.1,24.1,0,0,1,.524,5.09c0,6.649-2.51,12.039-5.605,12.039-1.416,0-2.538-.817-3.525-2.676" transform="translate(2130.285 -1470.1)"/><path class="a" d="M-2148.288,1388.914a23.5,23.5,0,0,1-.712-5.874c0-6.649,2.51-12.039,5.606-12.039,1.271,0,2.443.909,3.383,2.44" transform="translate(2158.74 -1367.948)"/><path class="a" d="M-2189.083,1437.5a11.993,11.993,0,0,1-5.141,1.15,12.01,12.01,0,0,1-9-4.038" transform="translate(2209.506 -1427.509)"/><path class="a" d="M-2137.976,1637.012a12,12,0,0,1,4.84-1.012,12,12,0,0,1,8.612,3.627" transform="translate(2148.419 -1616.068)"/></g></svg>