<svg xmlns="http://www.w3.org/2000/svg" width="36.596" height="30.502" viewBox="0 0 36.596 30.502"><defs><style>.a,.b,.c{fill:none;stroke-miterlimit:10;stroke-width:2px;}.a,.c{stroke:#fff;}.b{stroke:#fee63f;}.b,.c{stroke-linecap:round;}</style></defs><g transform="translate(1 1)"><path class="a" d="M1295.547,952.539h-18.456a1.091,1.091,0,0,1-1.091-1.091V934.971a1.971,1.971,0,0,1,1.971-1.971H1304.5a1.971,1.971,0,0,1,1.971,1.971v13.213" transform="translate(-1276 -933)"/><path class="b" d="M1326.458,983l-2.958,2.958,2.969,2.969" transform="translate(-1314.985 -975.855)"/><path class="b" d="M1382.511,983l2.958,2.958-2.969,2.969" transform="translate(-1363.409 -975.855)"/><line class="c" x1="3.081" y2="5.392" transform="translate(13.866 7.426)"/><ellipse class="b" cx="2.504" cy="2.696" rx="2.504" ry="2.696" transform="translate(24.265 18.103)"/><path class="a" d="M1398.416,1014.33v-1.245a.729.729,0,0,0-.626-.722l-.518-.074a.73.73,0,0,1-.591-.5,6.241,6.241,0,0,0-.39-.943.731.731,0,0,1,.062-.774l.314-.418a.73.73,0,0,0-.068-.953l-.88-.88a.729.729,0,0,0-.953-.068l-.418.314a.731.731,0,0,1-.774.062,6.231,6.231,0,0,0-.943-.39.731.731,0,0,1-.5-.591l-.074-.518a.729.729,0,0,0-.722-.626h-1.245a.729.729,0,0,0-.722.626l-.074.518a.731.731,0,0,1-.5.591,6.234,6.234,0,0,0-.943.39.731.731,0,0,1-.774-.062l-.418-.314a.729.729,0,0,0-.953.068l-.88.88a.729.729,0,0,0-.068.953l.314.418a.731.731,0,0,1,.062.774,6.228,6.228,0,0,0-.39.943.731.731,0,0,1-.591.5l-.518.074a.729.729,0,0,0-.626.722v1.245a.729.729,0,0,0,.626.722l.518.074a.731.731,0,0,1,.591.5,6.222,6.222,0,0,0,.39.943.732.732,0,0,1-.062.774l-.314.418a.729.729,0,0,0,.068.953l.88.88a.729.729,0,0,0,.953.068l.418-.314a.732.732,0,0,1,.774-.062,6.228,6.228,0,0,0,.943.39.731.731,0,0,1,.5.591l.074.518a.729.729,0,0,0,.722.626h1.245a.729.729,0,0,0,.722-.626l.074-.518a.731.731,0,0,1,.5-.591,6.225,6.225,0,0,0,.943-.39.731.731,0,0,1,.774.062l.418.314a.729.729,0,0,0,.953-.068l.88-.88a.73.73,0,0,0,.068-.953l-.314-.418a.732.732,0,0,1-.062-.774,6.235,6.235,0,0,0,.39-.943.731.731,0,0,1,.591-.5l.518-.074A.73.73,0,0,0,1398.416,1014.33Z" transform="translate(-1363.82 -992.914)"/><line class="a" x1="1.382" y2="6.355" transform="translate(9.402 19.643)"/><line class="c" x1="16.335" transform="translate(4.237 25.806)"/></g></svg>