<svg xmlns="http://www.w3.org/2000/svg" width="36.596" height="28.594" viewBox="0 0 36.596 28.594"><defs><style>.a,.b,.c{fill:none;stroke-miterlimit:10;stroke-width:2px;}.a,.c{stroke:#fff;}.a,.b{stroke-linecap:round;}.b{stroke:#fee63f;}</style></defs><g transform="translate(1 1)"><g transform="translate(17.631 10)"><path class="a" d="M-419.5,2344.432v-12.1a1.222,1.222,0,0,1,1.222-1.222h12.6" transform="translate(419.5 -2331.113)"/><line class="b" x2="2.359" transform="translate(5.731 3.391)"/></g><path class="c" d="M-449.588,2279.629A13.249,13.249,0,0,1-440.46,2276a13.3,13.3,0,0,1,13.3,13.3,13.3,13.3,0,0,1-13.3,13.3,13.249,13.249,0,0,1-9.044-3.55" transform="translate(461.759 -2276)"/><line class="a" x1="5.002" transform="translate(7.169 3.585)"/><line class="a" x1="5.002" transform="translate(3.918 8.42)"/><line class="a" x2="7.336" transform="translate(1.584 18.09)"/><line class="a" x2="5.157" transform="translate(7.169 23.092)"/><line class="b" x1="8.003" transform="translate(0 13.255)"/></g></svg>