<svg xmlns="http://www.w3.org/2000/svg" width="29.476" height="29.476" viewBox="0 0 29.476 29.476"><defs><style>.a,.b{fill:none;stroke-miterlimit:10;stroke-width:2px;}.a{stroke:#fee63f;stroke-linecap:round;}.b{stroke:#fff;}</style></defs><g transform="translate(1 1)"><ellipse class="a" cx="4.462" cy="4.805" rx="4.462" ry="4.805" transform="translate(9.063 8.942)"/><path class="b" d="M1410.476,1020.847v-2.219a1.3,1.3,0,0,0-1.115-1.286l-.924-.132a1.3,1.3,0,0,1-1.053-.9,11.113,11.113,0,0,0-.7-1.68,1.3,1.3,0,0,1,.11-1.38l.559-.745a1.3,1.3,0,0,0-.121-1.7l-1.569-1.569a1.3,1.3,0,0,0-1.7-.121l-.745.559a1.3,1.3,0,0,1-1.38.11,11.1,11.1,0,0,0-1.68-.695,1.3,1.3,0,0,1-.9-1.054l-.132-.924a1.3,1.3,0,0,0-1.287-1.116h-2.218a1.3,1.3,0,0,0-1.287,1.116l-.132.924a1.3,1.3,0,0,1-.9,1.054,11.107,11.107,0,0,0-1.68.695,1.3,1.3,0,0,1-1.38-.11l-.745-.559a1.3,1.3,0,0,0-1.7.121l-1.569,1.569a1.3,1.3,0,0,0-.121,1.7l.559.745a1.3,1.3,0,0,1,.11,1.38,11.112,11.112,0,0,0-.695,1.68,1.3,1.3,0,0,1-1.054.9l-.924.132a1.3,1.3,0,0,0-1.116,1.286v2.219a1.3,1.3,0,0,0,1.116,1.287l.924.132a1.3,1.3,0,0,1,1.054.9,11.1,11.1,0,0,0,.695,1.68,1.3,1.3,0,0,1-.11,1.38l-.559.745a1.3,1.3,0,0,0,.121,1.7l1.569,1.569a1.3,1.3,0,0,0,1.7.121l.745-.559a1.3,1.3,0,0,1,1.38-.11,11.107,11.107,0,0,0,1.68.695,1.3,1.3,0,0,1,.9,1.054l.132.924a1.3,1.3,0,0,0,1.287,1.116h2.218a1.3,1.3,0,0,0,1.287-1.116l.132-.924a1.3,1.3,0,0,1,.9-1.054,11.1,11.1,0,0,0,1.68-.695,1.3,1.3,0,0,1,1.38.11l.745.559a1.3,1.3,0,0,0,1.7-.121l1.569-1.569a1.3,1.3,0,0,0,.121-1.7l-.559-.745a1.3,1.3,0,0,1-.11-1.38,11.1,11.1,0,0,0,.7-1.68,1.3,1.3,0,0,1,1.053-.9l.924-.132A1.3,1.3,0,0,0,1410.476,1020.847Z" transform="translate(-1383 -1006)"/></g></svg>