<svg xmlns="http://www.w3.org/2000/svg" width="20.699" height="16.822" viewBox="0 0 20.699 16.822"><defs><style>.a{fill:#5c8fa3;}</style></defs><path class="a" d="M169.118,30.077a8.479,8.479,0,0,1-2.438.668,4.262,4.262,0,0,0,1.867-2.349,8.516,8.516,0,0,1-2.7,1.031,4.253,4.253,0,0,0-7.238,3.874,12.06,12.06,0,0,1-8.752-4.439,4.253,4.253,0,0,0,1.313,5.67A4.217,4.217,0,0,1,149.249,34v.054a4.251,4.251,0,0,0,3.406,4.164,4.224,4.224,0,0,1-1.118.15,4.267,4.267,0,0,1-.8-.075,4.254,4.254,0,0,0,3.968,2.949,8.515,8.515,0,0,1-5.275,1.816A8.618,8.618,0,0,1,148.419,43a12.079,12.079,0,0,0,18.594-10.175c0-.184-.006-.367-.013-.55a8.608,8.608,0,0,0,2.118-2.2Zm0,0" transform="translate(-148.419 -28.085)"/></svg>